<svg xmlns="http://www.w3.org/2000/svg" viewBox="0 0 189.3 81.33"><defs><style>.cls-1{isolation:isolate;}.cls-2{fill:#231f20;}.cls-3,.cls-7{fill:#2bace2;}.cls-4{opacity:0.6;mix-blend-mode:multiply;}.cls-5{fill:#d1000b;}.cls-6{fill:#fff;}.cls-7{font-size:14px;font-family:MyriadPro-Bold, Myriad Pro;}.cls-8{font-weight:700;}.cls-10,.cls-12,.cls-13,.cls-15,.cls-16,.cls-17,.cls-18,.cls-19,.cls-9{font-size:11px;}.cls-10,.cls-11,.cls-12,.cls-13,.cls-14,.cls-15,.cls-16,.cls-17,.cls-18,.cls-19,.cls-9{font-family:MyriadPro-Regular, Myriad Pro;}.cls-10{letter-spacing:0em;}.cls-12{letter-spacing:-0.01em;}.cls-13{letter-spacing:-0.01em;}.cls-14{letter-spacing:0em;}.cls-15{letter-spacing:0em;}.cls-16{letter-spacing:-0.01em;}.cls-17{letter-spacing:0em;}.cls-18{letter-spacing:0em;}.cls-19{letter-spacing:-0.01em;}</style></defs><title>Artboard 3</title><g class="cls-1"><g id="Layer_1" data-name="Layer 1"><path class="cls-2" d="M13.74,33.2,1.54,35.62A29.65,29.65,0,0,1,1.31,32a29.07,29.07,0,0,1,8.6-20.52,27.64,27.64,0,0,0,4.36,1.11A55.42,55.42,0,0,0,13.74,33.2Z"/><path class="cls-2" d="M43.58,27.16,17.1,32.43A49.46,49.46,0,0,1,17.79,13a39.26,39.26,0,0,0,8.14-.3A38.25,38.25,0,0,0,36.32,9.78c.28.4.56.81.84,1.24h0c.41.62.8,1.28,1.18,2a49.2,49.2,0,0,1,3.76,8.76q.31,1,.6,1.94C43,24.82,43.31,26,43.58,27.16Z"/><path class="cls-2" d="M23.63,57.78c-.7.45-1.36.9-2,1.38A30.84,30.84,0,0,1,2.55,39.23l12-2.41h0c.11.6.26,1.2.41,1.79.47,2,1,3.89,1.65,5.71,0,0,0,0,0,.05.2.59.43,1.19.65,1.77.44,1.19.92,2.33,1.43,3.43.27.62.57,1.23.88,1.81s.47.91.72,1.35.55,1,.82,1.46.73,1.18,1.12,1.73c.18.29.38.55.57.83s.45.62.68.93Z"/><path class="cls-2" d="M29.32,6.26a7.93,7.93,0,0,0-4-1.22,5,5,0,0,0-.94.08,7.06,7.06,0,0,0-4.15,2.65h.16A26.86,26.86,0,0,0,29.32,6.26Z"/><path class="cls-2" d="M41,57.4a7.55,7.55,0,0,1-3.51,3.47,4.49,4.49,0,0,1-1,.3c-1.77.31-3.82-.35-6-1.85l.17-.07A24.59,24.59,0,0,1,41,57.4Z"/><path class="cls-2" d="M44,43.31c-.05.61-.09,1.23-.17,1.82a34.52,34.52,0,0,1-.72,4.46c-.05.2-.09.4-.15.6a1.68,1.68,0,0,1-.08.31c-.13.51-.26,1-.41,1.48l-.19.58a42.36,42.36,0,0,0-4.61.36,37.34,37.34,0,0,0-11.58,3.48,30.41,30.41,0,0,1-3.41-4.79,5.63,5.63,0,0,1-.31-.54,5.8,5.8,0,0,1-.31-.55c-.21-.36-.41-.74-.61-1.13s-.32-.66-.48-1c-.53-1.12-1-2.28-1.51-3.51-.28-.72-.54-1.45-.8-2.21-.35-1.09-.7-2.19-1-3.35-.18-.63-.33-1.28-.5-1.94-.11-.49-.23-1-.33-1.47l26.55-5.28A57.2,57.2,0,0,1,44,43.31Z"/><path class="cls-2" d="M62.25,31.25A29.29,29.29,0,0,1,51.73,53.64a30.91,30.91,0,0,0-5.07-.9c.33-1.16.63-2.38.87-3.66.06-.35.13-.7.18-1.05.16-.9.27-1.83.37-2.79,0-.31.05-.62.07-.93s.05-.52.06-.79a62.57,62.57,0,0,0-.7-13.69L61.92,27A29,29,0,0,1,62.25,31.25Z"/><path class="cls-2" d="M47,26.12q0,.08,0,.18a.81.81,0,0,0,0-.18c-.05-.25-.1-.49-.17-.74s-.15-.63-.23-.94c-.15-.59-.31-1.18-.47-1.75-.4-1.38-.82-2.73-1.29-4-.24-.65-.48-1.3-.72-1.91v0c-.26-.6-.51-1.21-.76-1.8a.05.05,0,0,0,0,0c-.27-.6-.53-1.18-.81-1.75l-.43-.85c-.28-.56-.57-1.11-.88-1.64l-.46-.8c-.3-.53-.62-1-.94-1.52L39.61,8A23.13,23.13,0,0,0,44,4.67,30.71,30.71,0,0,1,61.23,23.29Z"/><path class="cls-3" d="M12.43,33.2.23,35.62A29.65,29.65,0,0,1,0,32,29.07,29.07,0,0,1,8.6,11.48,27.64,27.64,0,0,0,13,12.58,55.42,55.42,0,0,0,12.43,33.2Z"/><path class="cls-3" d="M42.27,27.16,15.8,32.43A49.46,49.46,0,0,1,16.48,13a39.26,39.26,0,0,0,8.14-.3A38.25,38.25,0,0,0,35,9.78c.28.4.56.81.84,1.24h0c.41.62.8,1.28,1.18,2a49.2,49.2,0,0,1,3.76,8.76q.31,1,.6,1.94C41.71,24.82,42,26,42.27,27.16Z"/><path class="cls-3" d="M22.32,57.78c-.7.45-1.36.9-2,1.38A30.84,30.84,0,0,1,1.24,39.23l12-2.41h0c.11.6.26,1.2.41,1.79.47,2,1,3.89,1.65,5.71,0,0,0,0,0,.05.2.59.43,1.19.65,1.77.44,1.19.92,2.33,1.43,3.43.27.62.57,1.23.88,1.81s.47.91.72,1.35.55,1,.82,1.46.73,1.18,1.12,1.73c.18.29.38.55.57.83s.45.62.68.93Z"/><path class="cls-3" d="M28,6.26A7.93,7.93,0,0,0,24,5a5,5,0,0,0-.94.08,7.06,7.06,0,0,0-4.15,2.65h.16A26.86,26.86,0,0,0,28,6.26Z"/><path class="cls-3" d="M39.72,57.4a7.55,7.55,0,0,1-3.51,3.47,4.49,4.49,0,0,1-1,.3c-1.77.31-3.82-.35-6-1.85l.17-.07A24.59,24.59,0,0,1,39.72,57.4Z"/><path class="cls-3" d="M42.67,43.31c-.05.61-.09,1.23-.17,1.82a34.52,34.52,0,0,1-.72,4.46c-.05.2-.09.4-.15.6a1.68,1.68,0,0,1-.08.31c-.13.51-.26,1-.41,1.48l-.19.58a42.36,42.36,0,0,0-4.61.36,37.34,37.34,0,0,0-11.58,3.48,30.41,30.41,0,0,1-3.41-4.79,5.63,5.63,0,0,1-.31-.54,5.8,5.8,0,0,1-.31-.55c-.21-.36-.41-.74-.61-1.13s-.32-.66-.48-1c-.53-1.12-1-2.28-1.51-3.51-.28-.72-.54-1.45-.8-2.21-.35-1.09-.7-2.19-1-3.35-.18-.63-.33-1.28-.5-1.94-.11-.49-.23-1-.33-1.47L42,30.65A57.2,57.2,0,0,1,42.67,43.31Z"/><path class="cls-3" d="M60.94,31.25A29.29,29.29,0,0,1,50.43,53.64a30.91,30.91,0,0,0-5.07-.9c.33-1.16.63-2.38.87-3.66.06-.35.13-.7.18-1.05.16-.9.27-1.83.37-2.79,0-.31.05-.62.07-.93s.05-.52.06-.79a62.57,62.57,0,0,0-.7-13.69L60.62,27A29,29,0,0,1,60.94,31.25Z"/><path class="cls-3" d="M45.7,26.12q0,.08,0,.18a.81.81,0,0,0,0-.18c-.05-.25-.1-.49-.17-.74s-.15-.63-.23-.94c-.15-.59-.31-1.18-.47-1.75-.4-1.38-.82-2.73-1.29-4-.24-.65-.48-1.3-.72-1.91v0c-.26-.6-.51-1.21-.76-1.8a.05.05,0,0,0,0,0c-.27-.6-.53-1.18-.81-1.75l-.43-.85c-.28-.56-.57-1.11-.88-1.64l-.46-.8c-.3-.53-.62-1-.94-1.52L38.3,8a23.13,23.13,0,0,0,4.4-3.38A30.71,30.71,0,0,1,59.93,23.29Z"/><g class="cls-4"><path d="M91.16,48.35a18.12,18.12,0,0,1-18.1-18.1v-.43a18.12,18.12,0,0,1,18.1-18.1h11.79v2.75H91.16A15.37,15.37,0,0,0,75.81,29.82v.43A15.37,15.37,0,0,0,91.16,45.6h11.65v2.75Z"/><path d="M102.57,12.09v2H91.16A15.75,15.75,0,0,0,75.43,29.82v.43A15.75,15.75,0,0,0,91.16,46h11.27v2H91.16A17.75,17.75,0,0,1,73.43,30.25v-.43A17.75,17.75,0,0,1,91.16,12.09h11.41m.75-.75H91.16A18.5,18.5,0,0,0,72.68,29.82v.43A18.5,18.5,0,0,0,91.16,48.73h12v-3.5h-12a15,15,0,0,1-15-15v-.43a15,15,0,0,1,15-15h12.16v-3.5Z"/><path d="M92.21,43.18a11.83,11.83,0,0,1-11.67-9.45l-.38-1.68H98.5V34.8H83.75a8.93,8.93,0,0,0,8.46,5.63H102.9v2.75Z"/><path d="M98.12,32.43v2H83.21a9.3,9.3,0,0,0,9,6.38h10.32v2H92.21a11.46,11.46,0,0,1-11.3-9.16l-.28-1.22H98.12m.75-.75H79.69l.21.92.28,1.22a12.19,12.19,0,0,0,12,9.74h11.07v-3.5H92.21a8.55,8.55,0,0,1-7.88-4.88H98.87v-3.5Z"/><path d="M80,29.34l.19-1.54a12.1,12.1,0,0,1,12-10.92H103v2.75H92.21a9.33,9.33,0,0,0-8.94,7H98.5v2.75Z"/><path d="M102.62,17.26v2H92.21A9.68,9.68,0,0,0,82.79,27H98.12v2H80.47l.14-1.12a11.73,11.73,0,0,1,11.6-10.59h10.41m.75-.75H92.21A12.47,12.47,0,0,0,79.86,27.76l-.14,1.12-.1.84H98.87v-3.5H83.78A8.93,8.93,0,0,1,92.21,20h11.16v-3.5Z"/><path d="M119.88,48.85V33.76H129c5.66,0,8.68-5.68,8.68-9.77,0-2.28-.73-9.76-10.12-10.25H127c-6.92,0-9.32,6.54-9.77,8V48.85h-2.75l0-27.58c0-.2,2.87-10.3,12.43-10.3l.74,0c9.38.49,12.72,7,12.72,13,0,5.05-3.63,12.52-11.43,12.52h-6.35V48.85Z"/><path d="M126.95,11.34l.72,0C136.79,11.84,140,18.2,140,24c0,4.9-3.51,12.15-11.05,12.15h-6.73V48.47h-2V34.14H129c5.91,0,9.05-5.89,9.05-10.15,0-2.36-.76-10.12-10.47-10.63H127c-7.37,0-9.82,7.24-10.15,8.32V48.47h-2l0-27.21c0-.1,2.75-9.92,12.06-9.92m0-.75h0c-9.86,0-12.75,10.37-12.78,10.48l0,.09v.1l0,27.21v.75h3.5V21.78c.47-1.51,2.82-7.68,9.4-7.68h.53c8.81.46,9.76,7.06,9.76,9.88,0,3.94-2.89,9.4-8.3,9.4h-9.48V49.22H123V36.89h6c8.05,0,11.8-7.7,11.8-12.9,0-6.14-3.44-12.87-13.08-13.37l-.76,0Z"/><path d="M119.68,32.1V24.33a7.77,7.77,0,1,1,7.77,7.77Zm7.77-2.75a5,5,0,1,0-5-5v5Z"/><path d="M127.45,16.93a7.39,7.39,0,1,1,0,14.79h-7.39v-7.4a7.4,7.4,0,0,1,7.39-7.39m-5.39,12.79h5.39a5.39,5.39,0,1,0-5.39-5.4v5.4m5.39-13.54a8.15,8.15,0,0,0-8.14,8.14v8.15h8.14a8.14,8.14,0,1,0,0-16.29ZM122.8,29V24.33A4.64,4.64,0,1,1,127.45,29Z"/><path d="M159.47,44.2a8.32,8.32,0,0,1-6.32-3.43l-.23-.29,2.17-1.69.23.29a5.66,5.66,0,0,0,4.16,2.37h.18A2.81,2.81,0,0,0,161.94,40c1.48-2.42-.62-4.52-4.23-6.93l-.85-.58c-2.39-1.63-7.36-5-7.36-11.06a10.48,10.48,0,0,1,2.91-7.54,10.64,10.64,0,0,1,7.8-2.88h.25a9.57,9.57,0,0,1,9.68,7.13l.08.37-2.69.56-.08-.36c0-.2-1.13-4.9-7-4.95h-.28a7.92,7.92,0,0,0-5.81,2.08,7.91,7.91,0,0,0-2.1,5.59c0,4.58,4,7.32,6.16,8.79l.83.56c2.45,1.64,8.2,5.48,5,10.65a5.55,5.55,0,0,1-4.48,2.79Z"/><path d="M160.21,11.34h.25a9.18,9.18,0,0,1,9.32,6.83l-2,.41c0-.21-1.19-5.2-7.37-5.24h-.28a8.32,8.32,0,0,0-6.08,2.19,8.28,8.28,0,0,0-2.21,5.86c0,4.78,4.11,7.59,6.32,9.1l.83.57c2.36,1.58,7.9,5.28,4.94,10.14a5.19,5.19,0,0,1-4.19,2.62h-.32a8,8,0,0,1-6-3.28L155,39.31a6.06,6.06,0,0,0,4.46,2.51h.2a3.16,3.16,0,0,0,2.59-1.66c1.81-3-1.29-5.4-4.34-7.44l-.85-.58c-2.34-1.6-7.2-4.92-7.2-10.75a10.11,10.11,0,0,1,2.8-7.27,10.28,10.28,0,0,1,7.54-2.77m0-.75a11,11,0,0,0-8.07,3,10.85,10.85,0,0,0-3,7.81c0,6.24,5.08,9.71,7.52,11.37l.85.58c3.53,2.36,5.45,4.25,4.12,6.43a2.42,2.42,0,0,1-2,1.3h-.16a5.36,5.36,0,0,1-3.86-2.23l-.46-.59-.59.46L153,39.95l-.59.46.46.59a8.69,8.69,0,0,0,6.62,3.57h.36a5.92,5.92,0,0,0,4.78-3c3.34-5.48-2.84-9.6-5.16-11.15l-.83-.56c-2.09-1.43-6-4.09-6-8.48a7.54,7.54,0,0,1,2-5.32,7.57,7.57,0,0,1,5.55-2h.27c5.6,0,6.62,4.46,6.66,4.65l.16.73.73-.15,2-.41.73-.15-.15-.73a10,10,0,0,0-10-7.43Z"/><path d="M159.29,49.85c-6.91-.05-11-6.31-11.21-6.58l-.2-.31,2.3-1.5.21.31c0,.05,3.53,5.29,8.92,5.33a8.4,8.4,0,0,0,8.6-7.54c.68-5.8-3.17-8.38-6-10.27l-.86-.58c-2.22-1.47-7.41-4.9-4.54-9.61a5,5,0,0,1,4.07-2.53h.34a7.55,7.55,0,0,1,5.65,3.07l.23.3-2.17,1.69-.23-.29a4.86,4.86,0,0,0-3.51-2h-.15a2.27,2.27,0,0,0-1.88,1.22c-1.07,1.76,0,3.41,3.71,5.88l.87.58c3,2,8.07,5.41,7.19,12.88a11.07,11.07,0,0,1-11.25,10Z"/><path d="M160.92,16.93a7.14,7.14,0,0,1,5.36,2.93l-1.58,1.23a5.18,5.18,0,0,0-3.81-2.16h-.17a2.65,2.65,0,0,0-2.18,1.4c-1.39,2.29.52,4.21,3.82,6.39l.87.58c2.95,2,7.88,5.28,7,12.52a10.69,10.69,0,0,1-10.88,9.64h-.1c-6.7,0-10.73-6.15-10.9-6.41L150.07,42c0,.05,3.63,5.46,9.23,5.5h.08a8.74,8.74,0,0,0,8.89-7.87c.71-6-3.26-8.69-6.16-10.63l-.86-.58c-2.13-1.41-7.11-4.7-4.43-9.1a4.67,4.67,0,0,1,3.77-2.35h.31m0-.75h-.36a5.39,5.39,0,0,0-4.36,2.71c-3.06,5,2.54,8.72,4.65,10.12l.86.57c2.89,1.94,6.49,4.35,5.83,9.92a8,8,0,0,1-8.15,7.21l-.08.75v-.75c-5.17,0-8.58-5.1-8.61-5.16l-.41-.62-.63.4L148,42.44l-.63.41.41.63c.18.27,4.41,6.7,11.52,6.75h.1A11.43,11.43,0,0,0,171,39.92c.91-7.69-4.47-11.3-7.35-13.23l-.87-.58c-4.08-2.7-4.4-4.06-3.6-5.38a1.92,1.92,0,0,1,1.58-1h.13a4.48,4.48,0,0,1,3.22,1.87l.46.59.59-.46,1.58-1.23.59-.46-.46-.59a7.92,7.92,0,0,0-5.95-3.21Z"/><rect x="180.14" y="11.97" width="2.75" height="36.54"/><path d="M182.51,12.34V48.13h-2V12.34h2m.75-.75h-3.5V48.88h3.5V11.59Z"/><rect x="185.68" y="12.26" width="2.75" height="36.25"/><path d="M188.05,12.63v35.5h-2V12.63h2m.75-.75h-3.5v37h3.5v-37Z"/><circle cx="184.59" cy="4.29" r="3.29"/><path d="M184.59,1.38a2.92,2.92,0,1,1-2.92,2.92,2.92,2.92,0,0,1,2.92-2.92m0-.75a3.67,3.67,0,1,0,3.67,3.67A3.67,3.67,0,0,0,184.59.63Z"/></g><path class="cls-5" d="M91.66,47.35a18.12,18.12,0,0,1-18.1-18.1v-.43a18.12,18.12,0,0,1,18.1-18.1h11.79v2.75H91.66A15.37,15.37,0,0,0,76.31,28.82v.43A15.37,15.37,0,0,0,91.66,44.6h11.65v2.75Z"/><path class="cls-6" d="M103.07,11.09v2H91.66A15.75,15.75,0,0,0,75.93,28.82v.43A15.75,15.75,0,0,0,91.66,45h11.27v2H91.66A17.75,17.75,0,0,1,73.93,29.25v-.43A17.75,17.75,0,0,1,91.66,11.09h11.41m.75-.75H91.66A18.5,18.5,0,0,0,73.18,28.82v.43A18.5,18.5,0,0,0,91.66,47.73h12v-3.5h-12a15,15,0,0,1-15-15v-.43a15,15,0,0,1,15-15h12.16v-3.5Z"/><path class="cls-5" d="M92.71,42.18A11.83,11.83,0,0,1,81,32.73l-.38-1.68H99V33.8H84.25a8.93,8.93,0,0,0,8.46,5.63H103.4v2.75Z"/><path class="cls-6" d="M98.62,31.43v2H83.71a9.3,9.3,0,0,0,9,6.38H103v2H92.71a11.46,11.46,0,0,1-11.3-9.16l-.28-1.22H98.62m.75-.75H80.19l.21.92.28,1.22a12.19,12.19,0,0,0,12,9.74h11.07v-3.5H92.71a8.55,8.55,0,0,1-7.88-4.88H99.37v-3.5Z"/><path class="cls-5" d="M80.55,28.34l.19-1.54a12.1,12.1,0,0,1,12-10.92h10.78v2.75H92.71a9.33,9.33,0,0,0-8.94,7H99v2.75Z"/><path class="cls-6" d="M103.12,16.26v2H92.71A9.68,9.68,0,0,0,83.29,26H98.62v2H81l.14-1.12a11.73,11.73,0,0,1,11.6-10.59h10.41m.75-.75H92.71A12.47,12.47,0,0,0,80.36,26.76l-.14,1.12-.1.84H99.37v-3.5H84.28A8.93,8.93,0,0,1,92.71,19h11.16v-3.5Z"/><path class="cls-5" d="M120.38,47.85V32.76h9.1c5.66,0,8.68-5.68,8.68-9.77,0-2.28-.73-9.76-10.12-10.25h-.54c-6.92,0-9.32,6.54-9.77,8V47.85H115l0-27.58c0-.2,2.87-10.3,12.43-10.3l.74,0c9.38.49,12.72,7,12.72,13,0,5.05-3.63,12.52-11.43,12.52h-6.35V47.85Z"/><path class="cls-6" d="M127.45,10.34l.72,0c9.12.48,12.37,6.83,12.37,12.63,0,4.9-3.51,12.15-11.05,12.15h-6.73V47.47h-2V33.14h8.73c5.91,0,9.05-5.89,9.05-10.15,0-2.36-.76-10.12-10.47-10.63h-.56c-7.37,0-9.82,7.24-10.15,8.32V47.47h-2l0-27.21c0-.1,2.75-9.92,12.06-9.92m0-.75h0c-9.86,0-12.75,10.37-12.78,10.48l0,.09v.1l0,27.21v.75h3.5V20.78c.47-1.51,2.82-7.68,9.4-7.68H128c8.81.46,9.76,7.06,9.76,9.88,0,3.94-2.89,9.4-8.3,9.4H120V48.22h3.5V35.89h6c8.05,0,11.8-7.7,11.8-12.9,0-6.14-3.44-12.87-13.08-13.37l-.76,0Z"/><path class="cls-5" d="M120.18,31.1V23.33a7.77,7.77,0,1,1,7.77,7.77Zm7.77-2.75a5,5,0,1,0-5-5v5Z"/><path class="cls-6" d="M127.95,15.93a7.39,7.39,0,1,1,0,14.79h-7.39v-7.4a7.4,7.4,0,0,1,7.39-7.39m-5.39,12.79h5.39a5.39,5.39,0,1,0-5.39-5.4v5.4m5.39-13.54a8.15,8.15,0,0,0-8.14,8.14v8.15h8.14a8.14,8.14,0,1,0,0-16.29ZM123.3,28V23.33A4.64,4.64,0,1,1,127.95,28Z"/><path class="cls-5" d="M160,43.2a8.32,8.32,0,0,1-6.32-3.43l-.23-.29,2.17-1.69.23.29A5.66,5.66,0,0,0,160,40.45h.18A2.81,2.81,0,0,0,162.44,39c1.48-2.42-.62-4.52-4.23-6.93l-.85-.58c-2.39-1.63-7.36-5-7.36-11.06a10.48,10.48,0,0,1,2.91-7.54,10.64,10.64,0,0,1,7.8-2.88H161a9.57,9.57,0,0,1,9.68,7.13l.08.37L168,18l-.08-.36c0-.2-1.13-4.9-7-4.95h-.28a7.92,7.92,0,0,0-5.81,2.08,7.91,7.91,0,0,0-2.1,5.59c0,4.58,4,7.32,6.16,8.79l.83.56c2.45,1.64,8.2,5.48,5,10.65a5.55,5.55,0,0,1-4.48,2.79Z"/><path class="cls-6" d="M160.71,10.34H161a9.18,9.18,0,0,1,9.32,6.83l-2,.41c0-.21-1.19-5.2-7.37-5.24h-.28a8.32,8.32,0,0,0-6.08,2.19,8.28,8.28,0,0,0-2.21,5.86c0,4.78,4.11,7.59,6.32,9.1l.83.57c2.36,1.58,7.9,5.28,4.94,10.14a5.19,5.19,0,0,1-4.19,2.62H160a8,8,0,0,1-6-3.28l1.58-1.23A6.06,6.06,0,0,0,160,40.82h.2a3.16,3.16,0,0,0,2.59-1.66c1.81-3-1.29-5.4-4.34-7.44l-.85-.58c-2.34-1.6-7.2-4.92-7.2-10.75a10.11,10.11,0,0,1,2.8-7.27,10.28,10.28,0,0,1,7.54-2.77m0-.75a11,11,0,0,0-8.07,3,10.85,10.85,0,0,0-3,7.81c0,6.24,5.08,9.71,7.52,11.37l.85.58c3.53,2.36,5.45,4.25,4.12,6.43a2.42,2.42,0,0,1-2,1.3H160a5.36,5.36,0,0,1-3.86-2.23l-.46-.59-.59.46-1.58,1.23-.59.46.46.59A8.69,8.69,0,0,0,160,43.57h.36a5.92,5.92,0,0,0,4.78-3c3.34-5.48-2.84-9.6-5.16-11.15l-.83-.56c-2.09-1.43-6-4.09-6-8.48a7.54,7.54,0,0,1,2-5.32,7.57,7.57,0,0,1,5.55-2h.27c5.6,0,6.62,4.46,6.66,4.65l.16.73.73-.15,2-.41.73-.15L171,17a10,10,0,0,0-10-7.43Z"/><path class="cls-5" d="M159.79,48.85c-6.91-.05-11-6.31-11.21-6.58l-.2-.31,2.3-1.5.21.31c0,.05,3.53,5.29,8.92,5.33a8.4,8.4,0,0,0,8.6-7.54c.68-5.8-3.17-8.38-6-10.27l-.86-.58c-2.22-1.47-7.41-4.9-4.54-9.61a5,5,0,0,1,4.07-2.53h.34a7.55,7.55,0,0,1,5.65,3.07l.23.3-2.17,1.69-.23-.29a4.86,4.86,0,0,0-3.51-2h-.15a2.27,2.27,0,0,0-1.88,1.22c-1.07,1.76,0,3.41,3.71,5.88l.87.58c3,2,8.07,5.41,7.19,12.88a11.07,11.07,0,0,1-11.25,10Z"/><path class="cls-6" d="M161.42,15.93a7.14,7.14,0,0,1,5.36,2.93l-1.58,1.23a5.18,5.18,0,0,0-3.81-2.16h-.17a2.65,2.65,0,0,0-2.18,1.4c-1.39,2.29.52,4.21,3.82,6.39l.87.58c2.95,2,7.88,5.28,7,12.52a10.69,10.69,0,0,1-10.88,9.64h-.1c-6.7,0-10.73-6.15-10.9-6.41L150.57,41c0,.05,3.63,5.46,9.23,5.5h.08a8.74,8.74,0,0,0,8.89-7.87c.71-6-3.26-8.69-6.16-10.63l-.86-.58c-2.13-1.41-7.11-4.7-4.43-9.1a4.67,4.67,0,0,1,3.77-2.35h.31m0-.75h-.36a5.39,5.39,0,0,0-4.36,2.71c-3.06,5,2.54,8.72,4.65,10.12l.86.57c2.89,1.94,6.49,4.35,5.83,9.92a8,8,0,0,1-8.15,7.21l-.08.75v-.75c-5.17,0-8.58-5.1-8.61-5.16l-.41-.62-.63.4-1.68,1.09-.63.41.41.63c.18.27,4.41,6.7,11.52,6.75h.1a11.43,11.43,0,0,0,11.62-10.3c.91-7.69-4.47-11.3-7.35-13.23l-.87-.58c-4.08-2.7-4.4-4.06-3.6-5.38a1.92,1.92,0,0,1,1.58-1h.13a4.48,4.48,0,0,1,3.22,1.87l.46.59.59-.46,1.58-1.23.59-.46-.46-.59a7.92,7.92,0,0,0-5.95-3.21Z"/><rect class="cls-5" x="180.64" y="10.97" width="2.75" height="36.54"/><path class="cls-6" d="M183,11.34V47.13h-2V11.34h2m.75-.75h-3.5V47.88h3.5V10.59Z"/><rect class="cls-5" x="186.18" y="11.26" width="2.75" height="36.25"/><path class="cls-6" d="M188.55,11.63v35.5h-2V11.63h2m.75-.75h-3.5v37h3.5v-37Z"/><circle class="cls-5" cx="185.09" cy="3.29" r="3.29"/><path class="cls-6" d="M185.09.38a2.92,2.92,0,1,1-2.92,2.92A2.92,2.92,0,0,1,185.09.38m0-.75a3.67,3.67,0,1,0,3.67,3.67,3.67,3.67,0,0,0-3.67-3.67Z"/><text class="cls-7" transform="translate(1.24 77.83) scale(0.95 1)"><tspan class="cls-8">E</tspan><tspan class="cls-9" x="7.48" y="0">fficie</tspan><tspan class="cls-10" x="29.45" y="0">n</tspan><tspan class="cls-9" x="35.51" y="0">t</tspan><tspan class="cls-11" x="39.16" y="0"> </tspan><tspan class="cls-8" x="42.12" y="0">P</tspan><tspan class="cls-12" x="50.26" y="0">r</tspan><tspan class="cls-9" x="53.74" y="0">o</tspan><tspan class="cls-13" x="59.78" y="0">f</tspan><tspan class="cls-9" x="62.85" y="0">essional </tspan><tspan class="cls-8" x="102.02" y="0">S</tspan><tspan class="cls-9" x="109.58" y="0">cie</tspan><tspan class="cls-10" x="122.6" y="0">n</tspan><tspan class="cls-9" x="128.66" y="0">tific</tspan><tspan class="cls-14" x="145.55" y="0"> </tspan><tspan class="cls-8" x="148.52" y="0">I</tspan><tspan class="cls-15" x="152.51" y="0">nn</tspan><tspan class="cls-16" x="164.72" y="0">o</tspan><tspan class="cls-17" x="170.68" y="0">va</tspan><tspan class="cls-18" x="181.19" y="0">ti</tspan><tspan class="cls-19" x="187.4" y="0">v</tspan><tspan class="cls-9" x="192.58" y="0">e</tspan></text></g></g></svg>